<svg xmlns="http://www.w3.org/2000/svg" fill="none" viewBox="0 0 44 20">
  <path d="M.652 19a.656.656 0 01-.442-.156.633.633 0 01-.182-.468V1.45c0-.19.06-.347.182-.468A.602.602 0 01.652.8h2.366c.19 0 .338.06.442.182a.634.634 0 01.182.468v6.708h7.67V1.45c0-.19.06-.347.182-.468A.602.602 0 0111.936.8h2.34c.19 0 .347.06.468.182a.634.634 0 01.182.468v16.926a.6.6 0 01-.182.442.634.634 0 01-.468.182h-2.34a.602.602 0 01-.442-.182.602.602 0 01-.182-.442v-6.968h-7.67v6.968a.6.6 0 01-.182.442c-.104.121-.251.182-.442.182H.652zm20.969.26c-1.057 0-1.976-.234-2.756-.702-.763-.485-1.352-1.161-1.768-2.028-.416-.884-.624-1.924-.624-3.12V6.104a.6.6 0 01.182-.442.602.602 0 01.442-.182h2.288c.19 0 .338.06.442.182a.602.602 0 01.182.442v7.15c0 2.15.944 3.224 2.834 3.224.901 0 1.612-.286 2.132-.858.537-.572.806-1.36.806-2.366v-7.15a.6.6 0 01.182-.442.602.602 0 01.442-.182h2.288a.6.6 0 01.442.182.602.602 0 01.182.442v12.272a.6.6 0 01-.182.442.602.602 0 01-.442.182h-2.106a.634.634 0 01-.468-.182.656.656 0 01-.156-.442V17.31a4.988 4.988 0 01-1.742 1.43c-.694.347-1.56.52-2.6.52zm16.538 0c-1.005 0-1.846-.173-2.522-.52A5.16 5.16 0 0134 17.414v.962a.6.6 0 01-.182.442c-.104.121-.251.182-.442.182h-2.054a.602.602 0 01-.442-.182.602.602 0 01-.182-.442V1.164a.6.6 0 01.182-.442.602.602 0 01.442-.182h2.21c.19 0 .338.06.442.182a.602.602 0 01.182.442v5.772a4.96 4.96 0 011.612-1.222c.659-.33 1.456-.494 2.392-.494.919 0 1.716.156 2.392.468a4.54 4.54 0 011.69 1.326 5.744 5.744 0 011.066 1.95c.243.745.373 1.551.39 2.418.018.312.026.598.026.858 0 .243-.008.52-.026.832a9.393 9.393 0 01-.416 2.496 6.005 6.005 0 01-1.04 1.95 4.656 4.656 0 01-1.69 1.3c-.676.295-1.473.442-2.392.442zm-.962-2.782c.746 0 1.326-.156 1.742-.468.416-.33.71-.754.884-1.274.19-.52.304-1.092.338-1.716.035-.52.035-1.04 0-1.56a5.912 5.912 0 00-.338-1.716 2.509 2.509 0 00-.884-1.248c-.416-.33-.996-.494-1.742-.494-.693 0-1.256.156-1.69.468-.433.312-.762.71-.988 1.196a3.663 3.663 0 00-.364 1.482 18.388 18.388 0 000 2.002c.035.537.148 1.066.338 1.586.208.503.529.919.962 1.248.45.33 1.032.494 1.742.494z" fill="#FBF7EF"/>
</svg>
