<svg xmlns="http://www.w3.org/2000/svg" fill="none" viewBox="0 0 42 42">
  <path d="M38.008 17.462h-1.404v-.072H20.916v6.956h9.851c-1.437 4.05-5.299 6.956-9.85 6.956-5.776 0-10.459-4.672-10.459-10.434s4.683-10.434 10.458-10.434c2.666 0 5.092 1.003 6.939 2.642l4.93-4.918c-3.113-2.895-7.277-4.68-11.869-4.68-9.626 0-17.43 7.786-17.43 17.39 0 9.603 7.804 17.39 17.43 17.39s17.43-7.787 17.43-17.39c0-1.166-.12-2.304-.338-3.406z" fill="#FFC107"/>
  <path d="M5.496 12.774l5.726 4.19a10.453 10.453 0 019.694-6.53c2.666 0 5.092 1.003 6.939 2.642l4.93-4.918c-3.113-2.895-7.277-4.68-11.869-4.68-6.695 0-12.5 3.771-15.42 9.296z" fill="#FF3D00"/>
  <path d="M20.916 38.258c4.503 0 8.593-1.72 11.686-4.515l-5.394-4.554a10.396 10.396 0 01-6.292 2.113c-4.533 0-8.383-2.884-9.833-6.91L5.4 28.763c2.885 5.632 8.743 9.496 15.517 9.496z" fill="#4CAF50"/>
  <path d="M38.008 17.462h-1.404v-.072H20.916v6.956h9.851a10.47 10.47 0 01-3.562 4.844l.003-.002 5.395 4.554c-.382.347 5.744-4.18 5.744-12.874 0-1.166-.12-2.304-.34-3.406z" fill="#1976D2"/>
</svg>
