<svg xmlns="http://www.w3.org/2000/svg" fill="none" viewBox="0 0 89 82">
  <g filter="url(#Qe8pYYbu7myRa)">
    <path d="M21.733 76.716c.196-.197.442-.369.565-.369.49 0 1.105-1.13 1.326-2.407.123-.786.221-4.594.246-8.525 0-3.906.098-8.917.172-11.079v-.019c.172-3.936.173-3.962.86-4.648.638-.614.884-.713 2.284-.713 1.45 0 1.622.05 2.285.811.417.418.86.786.982.786.148 0 .27.172.27.369 0 .196.173.368.37.368.196 0 .368.172.368.369 0 .196.073.368.196.368.172 0 2.997 2.629 2.997 2.825 0 .123 2.506 2.58 2.629 2.58.27 0 1.302 1.13 1.302 1.424 0 .148.147.295.32.295.146 0 .515.344.785.737s.565.737.663.737c.099 0 .737.54 1.425 1.204 1.425 1.376 2.604 1.793 3.93 1.4.468-.123.959-.393 1.057-.565.098-.172.369-.32.54-.32a.378.378 0 00.369-.368c0-.196.074-.368.197-.368.171 0 1.277-1.057 4.495-4.348.958-.983 1.843-1.794 1.916-1.794.32 0 1.769-2.186 1.99-2.997.197-.614.148-.86-.32-1.35-.957-1.057-1.768-1.794-1.94-1.794-.123 0-.197-.172-.197-.369 0-.22-.171-.442-.393-.54-.343-.123-5.232-4.962-8.155-8.033-.59-.614-1.106-1.13-1.155-1.13-.05 0-3.34-3.218-7.296-7.149-3.955-3.906-7.296-7.198-7.394-7.296-.099-.098-.786-.81-1.499-1.572-.737-.786-1.45-1.425-1.597-1.425-.147 0-.27-.098-.27-.196 0-.344-.884-1.278-1.204-1.278-.147 0-.27-.098-.27-.245 0-.295-1.179-1.474-1.474-1.474-.147 0-.245-.148-.245-.295 0-.172-.344-.54-.737-.81-.393-.271-.737-.615-.737-.738 0-.147-.246-.417-.516-.614a4.888 4.888 0 01-.81-.688 6.903 6.903 0 00-.738-.737c-.245-.22-.59-.565-.737-.737-.614-.737-2.162-2.26-2.26-2.26-.049 0-1.425-1.35-3.07-2.997-1.843-1.842-2.85-3.046-2.678-3.144.344-.221-.934-.492-2.236-.492-.761 0-1.13.197-2.112 1.106l-1.18 1.13-.073 33.336c-.05 18.326 0 33.802.073 34.392.074.565.27 1.032.418 1.032.123 0 .516.22.86.49.59.468 1.007.492 7.836.492 6.068 0 7.247-.049 7.567-.368z" fill="#13A734"/>
  </g>
  <g filter="url(#Qe8pYYbu7myRb)">
    <path d="M83.465 76.47c1.4-1.203 1.351.074 1.229-35.3-.099-33.336-.143-34.343-.143-34.466 0-.123-.567-1.21-1.106-1.351-.737-.369-1.404-.246-2.363-.246-1.35 0-2.063.516-2.063.516L54.826 30.655a3.95 3.95 0 00-.815 1.248c-.208.532-.246 1.226-.246 1.394 0 .368.123 1.092 1.695 2.59 1.4 1.352 4.84 4.816 6.707 6.757.614.638 1.302 1.596 1.547 2.137.246.54.615 1.302.811 1.67.197.393.344.934.344 1.18 0 .27.147.736.32 1.031.22.418.319 3.71.417 13.192.123 11.914.147 12.7.59 13.413.27.418.81.983 1.228 1.277.761.54.86.565 8.131.492 6.928-.074 7.394-.099 7.91-.565z" fill="#FBF7EF"/>
  </g>
  <defs>
    <filter id="Qe8pYYbu7myRa" x="1.727" y="2.682" width="57.886" height="78.442" filterUnits="userSpaceOnUse" color-interpolation-filters="sRGB">
      <feFlood flood-opacity="0" result="BackgroundImageFix"/>
      <feColorMatrix in="SourceAlpha" type="matrix" values="0 0 0 0 0 0 0 0 0 0 0 0 0 0 0 0 0 0 127 0" result="hardAlpha"/>
      <feOffset dy=".808"/>
      <feGaussianBlur stdDeviation="1.616"/>
      <feColorMatrix type="matrix" values="0 0 0 0 0.215686 0 0 0 0 0.513726 0 0 0 0 0.227451 0 0 0 1 0"/>
      <feBlend mode="normal" in2="BackgroundImageFix" result="effect1_dropShadow_13_80"/>
      <feBlend mode="normal" in="SourceGraphic" in2="effect1_dropShadow_13_80" result="shape"/>
    </filter>
    <filter id="Qe8pYYbu7myRb" x="50.532" y="2.663" width="37.45" height="78.443" filterUnits="userSpaceOnUse" color-interpolation-filters="sRGB">
      <feFlood flood-opacity="0" result="BackgroundImageFix"/>
      <feColorMatrix in="SourceAlpha" type="matrix" values="0 0 0 0 0 0 0 0 0 0 0 0 0 0 0 0 0 0 127 0" result="hardAlpha"/>
      <feOffset dy=".808"/>
      <feGaussianBlur stdDeviation="1.616"/>
      <feColorMatrix type="matrix" values="0 0 0 0 0.984314 0 0 0 0 0.968627 0 0 0 0 0.937255 0 0 0 0.2 0"/>
      <feBlend mode="normal" in2="BackgroundImageFix" result="effect1_dropShadow_13_80"/>
      <feBlend mode="normal" in="SourceGraphic" in2="effect1_dropShadow_13_80" result="shape"/>
    </filter>
  </defs>
</svg>
