<svg xmlns="http://www.w3.org/2000/svg" fill="none" viewBox="0 0 47 26">
  <g filter="url(#e3vKLXZC42oqa)">
    <path d="M2.056 20a.634.634 0 01-.468-.182.602.602 0 01-.182-.442V2.45c0-.19.06-.347.182-.468a.634.634 0 01.468-.182H4.11c.243 0 .425.07.546.208.121.121.2.217.234.286l5.018 9.36 5.07-9.36c.035-.07.113-.165.234-.286.121-.139.303-.208.546-.208h2.028c.19 0 .347.06.468.182a.633.633 0 01.182.468v16.926a.6.6 0 01-.182.442.634.634 0 01-.468.182h-2.184a.634.634 0 01-.468-.182.656.656 0 01-.156-.442V8.118l-3.64 6.942c-.087.156-.2.295-.338.416-.139.104-.32.156-.546.156H9.388c-.243 0-.433-.052-.572-.156a1.865 1.865 0 01-.312-.416l-3.64-6.942v11.258a.6.6 0 01-.182.442.602.602 0 01-.442.182H2.056zm21.958.26c-.901 0-1.716-.173-2.444-.52-.728-.364-1.308-.84-1.742-1.43a3.506 3.506 0 01-.624-2.028c0-1.213.485-2.175 1.456-2.886.988-.728 2.288-1.213 3.9-1.456l3.562-.52v-.546c0-.728-.182-1.291-.546-1.69-.364-.399-.988-.598-1.872-.598-.624 0-1.135.13-1.534.39a2.264 2.264 0 00-.858.988.663.663 0 01-.598.338H20.66c-.19 0-.338-.052-.442-.156a.63.63 0 01-.13-.416c.017-.277.13-.615.338-1.014.208-.399.538-.78.988-1.144.45-.381 1.031-.702 1.742-.962.71-.26 1.569-.39 2.574-.39 1.092 0 2.01.139 2.756.416.763.26 1.37.615 1.82 1.066.45.45.78.98.988 1.586.208.607.312 1.248.312 1.924v8.164a.6.6 0 01-.182.442.602.602 0 01-.442.182h-2.106a.634.634 0 01-.468-.182.656.656 0 01-.156-.442v-1.014c-.225.33-.528.641-.91.936-.381.277-.85.511-1.404.702-.537.173-1.178.26-1.924.26zm.884-2.47c.607 0 1.153-.13 1.638-.39.503-.26.893-.659 1.17-1.196.295-.555.442-1.248.442-2.08v-.546l-2.6.416c-1.022.156-1.785.407-2.288.754-.503.347-.754.771-.754 1.274 0 .381.113.71.338.988.243.26.546.46.91.598.364.121.745.182 1.144.182zm8.614 7.15a.602.602 0 01-.442-.182.602.602 0 01-.182-.442V7.104a.6.6 0 01.182-.442.602.602 0 01.442-.182h2.054c.19 0 .338.06.442.182a.602.602 0 01.182.442v1.04c.416-.555.962-1.014 1.638-1.378.676-.364 1.516-.546 2.522-.546.918 0 1.716.147 2.392.442.676.295 1.239.72 1.69 1.274.45.537.797 1.179 1.04 1.924.242.745.381 1.569.416 2.47a16.903 16.903 0 010 1.846 8.314 8.314 0 01-.39 2.418 5.79 5.79 0 01-1.066 1.924 4.79 4.79 0 01-1.69 1.274c-.676.312-1.474.468-2.392.468-.936 0-1.734-.165-2.392-.494a4.737 4.737 0 01-1.612-1.352v5.902c0 .173-.061.32-.182.442-.104.121-.252.182-.442.182h-2.21zm5.876-7.462c.745 0 1.326-.156 1.742-.468.416-.33.71-.754.884-1.274.19-.52.303-1.092.338-1.716.034-.52.034-1.04 0-1.56a5.919 5.919 0 00-.338-1.716 2.51 2.51 0 00-.884-1.248c-.416-.33-.997-.494-1.742-.494-.711 0-1.292.165-1.742.494-.434.33-.754.754-.962 1.274a5.342 5.342 0 00-.338 1.56 19.224 19.224 0 000 2.002c.017.52.138 1.023.364 1.508.225.468.554.858.988 1.17.433.312.996.468 1.69.468z" fill="#13A734"/>
  </g>
  <defs>
    <filter id="e3vKLXZC42oqa" x=".406" y=".8" width="46.508" height="25.141" filterUnits="userSpaceOnUse" color-interpolation-filters="sRGB">
      <feFlood flood-opacity="0" result="BackgroundImageFix"/>
      <feColorMatrix in="SourceAlpha" type="matrix" values="0 0 0 0 0 0 0 0 0 0 0 0 0 0 0 0 0 0 127 0" result="hardAlpha"/>
      <feOffset/>
      <feGaussianBlur stdDeviation=".5"/>
      <feComposite in2="hardAlpha" operator="out"/>
      <feColorMatrix type="matrix" values="0 0 0 0 0.215686 0 0 0 0 0.513726 0 0 0 0 0.227451 0 0 0 1 0"/>
      <feBlend mode="normal" in2="BackgroundImageFix" result="effect1_dropShadow_6037_15887"/>
      <feBlend mode="normal" in="SourceGraphic" in2="effect1_dropShadow_6037_15887" result="shape"/>
    </filter>
  </defs>
</svg>
