<svg xmlns="http://www.w3.org/2000/svg" fill="none" viewBox="0 0 51 27">
  <path d="M1.792 25.91a.83.83 0 01-.61-.252.83.83 0 01-.25-.61V1.699c0-.263.083-.479.25-.646a.83.83 0 01.61-.251h9.613c1.866 0 3.492.299 4.879.897 1.387.574 2.463 1.458 3.228 2.654.765 1.172 1.148 2.642 1.148 4.412 0 1.793-.383 3.276-1.148 4.448-.765 1.148-1.841 2.008-3.228 2.582-1.387.574-3.013.861-4.879.861H6.061v8.394a.83.83 0 01-.251.61c-.144.167-.347.25-.61.25H1.792zM5.99 12.673h5.237c1.387 0 2.451-.323 3.192-.969.742-.67 1.112-1.65 1.112-2.941 0-1.196-.346-2.152-1.04-2.87-.693-.74-1.781-1.112-3.264-1.112H5.989v7.892zm16.148 13.235a.83.83 0 01-.61-.25.83.83 0 01-.251-.61V8.154c0-.263.084-.478.25-.645a.83.83 0 01.61-.252h2.906a.83.83 0 01.61.252.819.819 0 01.287.645v1.47a5.405 5.405 0 012.116-1.757c.885-.406 1.901-.61 3.049-.61h1.47c.264 0 .467.084.61.252a.83.83 0 01.252.61V10.7a.83.83 0 01-.252.61c-.143.167-.346.25-.61.25h-2.797c-1.148 0-2.045.324-2.69.97-.622.645-.933 1.53-.933 2.653v9.865a.83.83 0 01-.251.61.874.874 0 01-.646.25h-3.12zm19.231.36c-1.913 0-3.527-.336-4.842-1.005-1.291-.67-2.284-1.614-2.977-2.834-.67-1.22-1.052-2.642-1.148-4.268-.024-.43-.036-.957-.036-1.579 0-.621.012-1.147.036-1.578.096-1.65.49-3.073 1.184-4.268.717-1.22 1.721-2.164 3.013-2.834 1.315-.67 2.905-1.004 4.77-1.004 1.865 0 3.444.335 4.735 1.004 1.315.67 2.32 1.614 3.013 2.834.717 1.195 1.124 2.618 1.22 4.268.023.43.035.957.035 1.578 0 .622-.012 1.148-.035 1.579-.096 1.626-.49 3.049-1.184 4.268-.67 1.22-1.662 2.164-2.977 2.834-1.292.67-2.894 1.004-4.807 1.004zm0-3.552c1.268 0 2.248-.394 2.941-1.184.694-.813 1.077-1.996 1.148-3.55.024-.36.036-.826.036-1.4 0-.573-.012-1.04-.036-1.398-.071-1.53-.454-2.703-1.148-3.516-.693-.813-1.673-1.22-2.94-1.22-1.268 0-2.249.407-2.942 1.22-.694.813-1.076 1.985-1.148 3.515-.024.36-.036.825-.036 1.4 0 .573.012 1.04.036 1.398.072 1.555.454 2.738 1.148 3.551.693.79 1.674 1.184 2.941 1.184z" fill="#FBF7EF"/>
</svg>
